<svg xmlns="http://www.w3.org/2000/svg" version="1.1" xmlns:xlink="http://www.w3.org/1999/xlink" xmlns:svgjs="http://svgjs.dev/svgjs" width="2000" height="1500" viewBox="0 0 2000 1500"><rect width="2000" height="1500" fill="#ffffff"></rect><g transform="matrix(0.75,0,0,0.75,249.090909090909,626.2511514580076)"><svg viewBox="0 0 396 65" data-background-color="#ffffff" preserveAspectRatio="xMidYMid meet" height="328" width="2000" xmlns="http://www.w3.org/2000/svg" xmlns:xlink="http://www.w3.org/1999/xlink"><g id="tight-bounds" transform="matrix(1,0,0,1,0.2400000000000091,0.19786648467280088)"><svg viewBox="0 0 395.52 64.60426703065441" height="64.60426703065441" width="395.52"><g><svg viewBox="0 0 489.04626050788795 79.88085357047576" height="64.60426703065441" width="395.52"><g transform="matrix(1,0,0,1,0,11.039973250333482)"><svg viewBox="0 0 395.52 57.8009070698088" height="57.8009070698088" width="395.52"><g id="textblocktransform"><svg viewBox="0 0 395.52 57.8009070698088" height="57.8009070698088" width="395.52" id="textblock"><g><svg viewBox="0 0 395.52 57.8009070698088" height="57.8009070698088" width="395.52"><g transform="matrix(1,0,0,1,0,0)"><svg width="395.52" viewBox="6.25 -37.7 337.32 49.300000000000004" height="57.8009070698088" data-palette-color="#aa9903"><path d="M25.65-18.1Q30.65-15.95 30.65-9.75L30.65-9.75Q30.65-4.7 27.45-2.35 24.25 0 18.45 0L18.45 0 6.25 0 6.25-34.8 18.8-34.8Q23.9-34.8 26.7-32.55 29.5-30.3 29.5-25.7L29.5-25.7Q29.5-20.45 25.65-18.1L25.65-18.1ZM18.25-30.6L10.65-30.6 10.65-19.85 18.25-19.85Q21.7-19.85 23.23-21.1 24.75-22.35 24.75-25.5L24.75-25.5Q24.75-28.4 23.23-29.5 21.7-30.6 18.25-30.6L18.25-30.6ZM18.45-4.2Q22.4-4.2 24.15-5.4 25.9-6.6 25.9-9.95L25.9-9.95Q25.9-13.3 24.13-14.5 22.35-15.7 18.35-15.7L18.35-15.7 10.65-15.7 10.65-4.2 18.45-4.2ZM62.35 0L57.95 0 57.25-3.65Q54.95-1.5 52.82-0.45 50.7 0.6 47.85 0.6L47.85 0.6Q44.3 0.6 42.32-1.75 40.35-4.1 40.35-8L40.35-8 40.35-26.1 44.75-26.1 44.75-8.6Q44.75-6.2 45.85-4.78 46.95-3.35 49-3.35L49-3.35Q51.35-3.35 53.12-4.2 54.9-5.05 56.85-6.75L56.85-6.75 56.85-26.1 61.25-26.1 61.25-5.8 62.35 0ZM88.95-26.1L93.65-26.1 78.7 11.6 74.2 11.6 78.7 0.3 68.34-26.1 72.84-26.1 81-4.7 88.95-26.1ZM115.69 0.6Q110.64 0.6 107.12-1.65 103.59-3.9 101.82-7.95 100.04-12 100.04-17.4L100.04-17.4Q100.04-22.8 101.82-26.85 103.59-30.9 107.12-33.15 110.64-35.4 115.69-35.4L115.69-35.4Q118.44-35.4 120.99-34.73 123.54-34.05 125.64-32.75L125.64-32.75 125.64-27.75 125.44-27.75Q123.79-29.35 121.29-30.33 118.79-31.3 115.84-31.3L115.84-31.3Q110.14-31.3 107.47-27.6 104.79-23.9 104.79-17.4L104.79-17.4Q104.79-10.85 107.47-7.15 110.14-3.45 115.79-3.45L115.79-3.45Q118.64-3.45 121.17-4.4 123.69-5.35 125.44-7.05L125.44-7.05 125.64-7.05 125.64-2.05Q123.54-0.75 120.99-0.08 118.44 0.6 115.69 0.6L115.69 0.6ZM157.59-13.05L157.59-11.6 139.09-11.6Q139.49-7.75 141.67-5.48 143.84-3.2 147.59-3.2L147.59-3.2Q149.84-3.2 151.97-4.13 154.09-5.05 156.29-6.85L156.29-6.85 156.49-6.85 156.49-2.45Q154.29-0.85 152.14-0.13 149.99 0.6 147.54 0.6L147.54 0.6Q143.54 0.6 140.59-1.15 137.64-2.9 136.06-6.03 134.49-9.15 134.49-13.2L134.49-13.2Q134.49-17.05 135.92-20.13 137.34-23.2 139.99-24.95 142.64-26.7 146.19-26.7L146.19-26.7Q149.79-26.7 152.37-24.93 154.94-23.15 156.27-20.05 157.59-16.95 157.59-13.05L157.59-13.05ZM146.24-23.05Q143.14-23.05 141.29-20.8 139.44-18.55 139.09-15L139.09-15 153.04-15Q152.69-18.65 151.02-20.85 149.34-23.05 146.24-23.05L146.24-23.05ZM165.79 0L165.79-37.7 170.19-37.7 170.19 0 165.79 0ZM179.79 0L179.79-37.7 184.19-37.7 184.19 0 179.79 0ZM206.48-26.7Q209.88-26.7 212.28-24.9 214.68-23.1 215.91-20 217.13-16.9 217.13-13L217.13-13Q217.13-9.1 215.71-6.03 214.28-2.95 211.61-1.2 208.93 0.55 205.28 0.55L205.28 0.55Q203.43 0.55 201.83 0.15 200.23-0.25 198.43-1L198.43-1 198.43 11.6 194.03 11.6 194.03-20.3 192.93-26.1 197.33-26.1 197.98-22.75Q201.38-26.7 206.48-26.7L206.48-26.7ZM204.83-3.35Q208.43-3.35 210.41-6.05 212.38-8.75 212.38-13L212.38-13Q212.38-17.25 210.86-19.95 209.33-22.65 206.08-22.65L206.08-22.65Q203.78-22.65 201.96-21.7 200.13-20.75 198.43-18.9L198.43-18.9 198.43-4.35Q201.68-3.35 204.83-3.35L204.83-3.35ZM239.93-26.7Q243.63-26.7 245.53-24.43 247.43-22.15 247.43-18.1L247.43-18.1 247.43 0 243.03 0 243.03-17.5Q243.03-20 241.98-21.38 240.93-22.75 238.78-22.75L238.78-22.75Q236.33-22.75 234.66-21.95 232.98-21.15 230.93-19.35L230.93-19.35 230.93 0 226.53 0 226.53-37.7 230.93-37.7 230.93-22.85Q233.13-24.85 235.11-25.78 237.08-26.7 239.93-26.7L239.93-26.7ZM268.98 0.6Q263.28 0.6 260.08-3.13 256.88-6.85 256.88-13.05L256.88-13.05Q256.88-19.25 260.08-22.98 263.28-26.7 268.98-26.7L268.98-26.7Q274.68-26.7 277.88-22.98 281.08-19.25 281.08-13.05L281.08-13.05Q281.08-6.85 277.88-3.13 274.68 0.6 268.98 0.6L268.98 0.6ZM268.98-3.2Q272.63-3.2 274.48-5.9 276.33-8.6 276.33-13.05L276.33-13.05Q276.33-17.5 274.48-20.2 272.63-22.9 268.98-22.9L268.98-22.9Q265.33-22.9 263.5-20.2 261.68-17.5 261.68-13.05L261.68-13.05Q261.68-8.6 263.5-5.9 265.33-3.2 268.98-3.2L268.98-3.2ZM303.93-26.7Q307.63-26.7 309.53-24.43 311.43-22.15 311.43-18.1L311.43-18.1 311.43 0 307.03 0 307.03-17.5Q307.03-20 305.98-21.38 304.93-22.75 302.78-22.75L302.78-22.75Q300.33-22.75 298.65-21.95 296.98-21.15 294.93-19.35L294.93-19.35 294.93 0 290.53 0 290.53-20.3 289.43-26.1 293.83-26.1 294.53-22.45Q296.88-24.7 298.9-25.7 300.93-26.7 303.93-26.7L303.93-26.7ZM343.57-13.05L343.57-11.6 325.07-11.6Q325.47-7.75 327.65-5.48 329.82-3.2 333.57-3.2L333.57-3.2Q335.82-3.2 337.95-4.13 340.07-5.05 342.27-6.85L342.27-6.85 342.47-6.85 342.47-2.45Q340.27-0.85 338.12-0.13 335.97 0.6 333.52 0.6L333.52 0.6Q329.52 0.6 326.57-1.15 323.62-2.9 322.05-6.03 320.47-9.15 320.47-13.2L320.47-13.2Q320.47-17.05 321.9-20.13 323.32-23.2 325.97-24.95 328.62-26.7 332.17-26.7L332.17-26.7Q335.77-26.7 338.35-24.93 340.92-23.15 342.25-20.05 343.57-16.95 343.57-13.05L343.57-13.05ZM332.22-23.05Q329.12-23.05 327.27-20.8 325.42-18.55 325.07-15L325.07-15 339.02-15Q338.67-18.65 337-20.85 335.32-23.05 332.22-23.05L332.22-23.05Z" opacity="1" transform="matrix(1,0,0,1,0,0)" fill="#aa9903" class="wordmark-text-0" data-fill-palette-color="primary" id="text-0"></path></svg></g></svg></g></svg></g></svg></g><g transform="matrix(1,0,0,1,409.1654069374122,0)"><svg viewBox="0 0 79.88085357047576 79.88085357047576" height="79.88085357047576" width="79.88085357047576"><g data-palette-color="#e13e09"><rect width="21.83409997593004" height="79.88085357047576" fill="#e13e09" stroke="transparent" data-fill-palette-color="accent" x="0" fill-opacity="1"></rect><rect width="21.83409997593004" height="79.88085357047576" fill="#e13e09" stroke="transparent" data-fill-palette-color="accent" x="26.626951190158586" fill-opacity="0.75"></rect><rect width="21.83409997593004" height="79.88085357047576" fill="#e13e09" stroke="transparent" data-fill-palette-color="accent" x="53.25390238031717" fill-opacity="0.5"></rect></g></svg></g></svg></g><defs></defs></svg><rect width="395.52" height="64.60426703065441" fill="none" stroke="none" visibility="hidden"></rect></g></svg></g></svg>